<svg xmlns="http://www.w3.org/2000/svg" viewBox="0 0 900 560" role="img" aria-label="Barbell back squat exercise illustration"><defs><linearGradient id="bg" x1="0" y1="0" x2="1" y2="1"><stop stop-color="#101923"/><stop offset="1" stop-color="#071018"/></linearGradient></defs><rect width="900" height="560" rx="28" fill="url(#bg)"/><g fill="none" stroke="#587084" stroke-width="8" stroke-linecap="round"><path d="M120 470h660M190 450V120M710 450V120M190 135h520"/></g><g stroke="#a9bfd0" stroke-width="10" stroke-linecap="round"><path d="M145 145h610"/><path d="M175 120v50M725 120v50"/></g><g fill="#344b5e" stroke="#b9c9d6" stroke-width="4"><circle cx="155" cy="145" r="27"/><circle cx="745" cy="145" r="27"/></g><g stroke="#dce8f2" stroke-width="15" stroke-linecap="round" stroke-linejoin="round" fill="none"><circle cx="450" cy="185" r="32" fill="#dce8f2" stroke="none"/><path d="M450 220l-5 85"/><path d="M450 245l-72 12M450 245l72 12"/><path d="M445 305l-85 85M445 305l85 85"/><path d="M360 390l-40 55M530 390l40 55"/><path d="M320 445h-30M570 445h30"/></g><g stroke="#ff6b35" stroke-width="7" fill="none" stroke-linecap="round"><path d="M450 285v-70"/><path d="M450 215l-13 22M450 215l13 22"/></g><g fill="#f5f7fa" font-family="Arial,sans-serif"><text x="55" y="70" font-size="30" font-weight="800">BARBELL BACK SQUAT</text><text x="55" y="505" font-size="18" opacity=".7">Brace • sit down and back • drive through the floor</text></g></svg>