<svg xmlns="http://www.w3.org/2000/svg" viewBox="0 0 760 150" role="img" aria-labelledby="title desc">
  <title id="title">Gym Log logo</title>
  <desc id="desc">Orange GL lettering integrated with a dumbbell and white Gym Log wordmark.</desc>
  <g fill="#FF6A00" transform="translate(8 7) scale(.27)">
    <rect x="18" y="91" width="18" height="38" rx="8"/><rect x="45" y="72" width="20" height="76" rx="9"/><rect x="74" y="52" width="24" height="116" rx="10"/><rect x="98" y="91" width="24" height="38" rx="8"/>
    <path d="M139 92h18c7-26 30-43 59-43h73l-20 28h-50c-15 0-27 7-33 20h78v28h-78c6 13 18 20 33 20h50l20 28h-73c-29 0-52-17-59-43h-18z"/>
    <path d="M293 49h38v96h67l22 28H293z"/>
    <rect x="413" y="91" width="24" height="38" rx="8"/><rect x="442" y="72" width="20" height="76" rx="9"/><rect x="469" y="91" width="18" height="38" rx="8"/>
  </g>
  <text x="162" y="101" font-family="Poppins, Arial, sans-serif" font-size="56" font-weight="700" letter-spacing="4" fill="#FFFFFF">GYM LOG</text>
</svg>
